<?xml version="1.0" encoding="UTF-8"?><svg id="Lag_2" xmlns="http://www.w3.org/2000/svg" width="50" height="50" viewBox="0 0 50 50"><path d="M1.38,24.62c.4-4.8,1.8-9.7,5.2-13s9.3-4.4,13-1.4c.9,.8,1.7,1.8,2.7,2.6s2.3,1.3,3.4,.9c1.6-.6,2.1-2.5,3.1-3.9,1.6-2.3,4.8-3.1,7.5-2.4s4.9,2.7,6.5,5,2.6,4.9,3.5,7.6c2.4,6.4,4.8,13.3,2.8,19.8-.7,2.4-2.5,4.9-5,4.8-1.6-.1-3-1.3-3.8-2.7s-1-3.1-1.2-4.7c-.6-4.1-1.2-8.2-1.7-12.4-.2-1.7-.8-3.7-2.4-4.1-1.7-.3-3.1,1.4-3.3,3.1-.3,1.7,.1,3.4-.2,5.1-.5,1.9-2,3.6-4,4.1-1.9,.5-4.1-.1-5.5-1.6s-1.8-3.6-2.5-5.5-1.9-3.9-3.9-4.3c-2.2-.5-4.4,1.3-5.1,3.4-.7,2.1-.3,4.4,.3,6.6,.6,2.2,1.4,4.3,1.4,6.5,0,2.5-1,5-2.9,6.5s-4.8,1.9-6.9,.6c-3.3-2-2.1-4.9-1.4-7.8,.6-4.2,0-8.7,.4-12.8Z"/></svg>