<?xml version="1.0" encoding="UTF-8"?><svg id="Lag_1" xmlns="http://www.w3.org/2000/svg" width="70" height="70" viewBox="0 0 70 70"><defs><style>.cls-1{fill:#fff;stroke:#fff;stroke-miterlimit:10;}</style></defs><g id="Lag_2"><path class="cls-1" d="M28.18,14.06c.16-4.38,3.4-8.47,7.63-9.61s9.09,.74,11.44,4.44,1.98,8.91-.86,12.24c-1.53,1.8-3.69,3.09-4.81,5.17s-.34,5.45,2.02,5.6c2.32,.15,3.52-2.69,5.43-4.02,2.16-1.5,5.57-.64,6.77,1.71s-.13,5.61-2.61,6.47c-1.73,.6-3.64,.13-5.46,.31s-3.87,1.58-3.51,3.38c.35,1.74,2.52,2.28,4.28,2.5,3.07,.39,6.19,.9,8.89,2.41s4.91,4.21,5.03,7.3-2.42,6.27-5.51,6.13c-2.29-.1-4.17-1.82-5.54-3.66s-2.49-3.91-4.3-5.32-4.63-1.89-6.29-.32c-1.55,1.47-1.41,4.01-.65,6s2.02,3.82,2.39,5.93-.61,4.71-2.71,5.09c-2.35,.43-4.23-2.2-4.33-4.59s.9-4.68,1.1-7.06-.87-5.24-3.21-5.68c-2.06-.38-3.96,1.36-4.86,3.25s-1.19,4.05-2.18,5.89c-1.8,3.34-6.01,5.17-9.68,4.22s-6.46-4.59-6.42-8.38,2.91-7.38,6.6-8.25c2.57-.61,5.26,0,7.89-.18s5.59-1.6,5.98-4.2c.42-2.76-2.39-5.1-5.16-5.45s-5.51,.64-8.24,1.2-5.9,.58-7.95-1.31c-2.21-2.04-2.23-5.8-.47-8.24s4.89-3.62,7.9-3.62c3.21,0,7.65,3.53,10.62,1.62,3.41-2.19,.69-7.8,.81-11.01Z"/></g></svg>