<?xml version="1.0" encoding="UTF-8"?><svg id="Lag_2" xmlns="http://www.w3.org/2000/svg" width="64.4" height="50.37" viewBox="0 0 64.4 50.37"><defs><style>.cls-1{fill:#fff;}</style></defs><g id="Lag_2-2"><path class="cls-1" d="M1.56,22.63c.52-6.23,2.33-12.58,6.75-16.86S20.37,.06,25.17,3.95c1.17,1.04,2.21,2.33,3.5,3.37,1.3,1.04,2.98,1.69,4.41,1.17,2.08-.78,2.72-3.24,4.02-5.06C39.18,.45,43.33-.59,46.83,.32s6.36,3.5,8.43,6.49,3.37,6.36,4.54,9.86c3.11,8.3,6.23,17.25,3.63,25.68-.91,3.11-3.24,6.36-6.49,6.23-2.08-.13-3.89-1.69-4.93-3.5s-1.3-4.02-1.56-6.1c-.78-5.32-1.56-10.64-2.21-16.09-.26-2.21-1.04-4.8-3.11-5.32-2.21-.39-4.02,1.82-4.28,4.02-.39,2.21,.13,4.41-.26,6.62-.65,2.46-2.59,4.67-5.19,5.32-2.46,.65-5.32-.13-7.13-2.08-1.82-1.95-2.33-4.67-3.24-7.13s-2.46-5.06-5.06-5.58c-2.85-.65-5.71,1.69-6.62,4.41-.91,2.72-.39,5.71,.39,8.56s1.82,5.58,1.82,8.43c0,3.24-1.3,6.49-3.76,8.43s-6.23,2.46-8.95,.78c-4.28-2.59-2.72-6.36-1.82-10.12,.91-5.45,0-11.29,.52-16.6Z"/></g></svg>