<?xml version="1.0" encoding="UTF-8"?><svg id="Lag_2" xmlns="http://www.w3.org/2000/svg" width="420.08" height="259.39" xmlns:xlink="http://www.w3.org/1999/xlink" viewBox="0 0 420.08 259.39"><defs><style>.cls-1{stroke:#040404;}.cls-1,.cls-2,.cls-3,.cls-4{stroke-miterlimit:10;}.cls-2{stroke:#fff;}.cls-5{fill:#fff200;}.cls-6,.cls-3{fill:#fff;}.cls-7{fill:#181429;}.cls-3{stroke:#000;}.cls-4{fill:none;stroke:red;}</style></defs><path class="cls-6" d="M105.97,131.49c1.64,7.33,2.11,14.87,2.57,22.37,.44,7.19,.62,15.19-4.09,20.63-3.2,3.7-8.23,5.48-13.13,5.54-9.5,.13-18.48-5.89-23.19-14.14-2.4-4.22-3.81-9-4.09-13.84-.13-2.25-2.79-3.44-4.5-1.99s-2.9,3.53-3.53,5.65c-1.1,3.75-.96,7.78-2.08,11.53-2.17,7.27-9.46,12.68-17.04,12.66-7-.02-13.27-4.1-19.06-8.03-3.41-2.31-7.16-5.17-7.51-9.27-.21-2.43,.86-4.73,2.11-6.88,3.24-5.55,6.68-10.99,10.17-16.39,6.48-10.03,13.1-20.39,22.13-28.35,7.43-6.55,16.71-11.41,26.59-11.98,19.38-1.13,30.82,15.3,34.66,32.47Z"/><path class="cls-6" d="M415.04,44.84c1.65,7.33,2.13,14.87,2.61,22.37,.45,7.19,.65,15.19-4.05,20.64-3.2,3.7-8.22,5.49-13.12,5.57-9.5,.14-18.49-5.86-23.21-14.1-2.41-4.21-3.82-8.99-4.12-13.83-.14-2.25-2.79-3.44-4.51-1.98s-2.9,3.53-3.52,5.65c-1.1,3.75-.95,7.79-2.06,11.53-2.16,7.27-9.43,12.7-17.02,12.69-7,0-13.27-4.07-19.08-7.99-3.42-2.31-7.17-5.15-7.53-9.26-.21-2.43,.85-4.73,2.1-6.88,3.23-5.56,6.66-11,10.14-16.41,6.46-10.05,13.06-20.42,22.08-28.39,7.42-6.56,16.69-11.44,26.57-12.03,19.38-1.16,30.85,15.25,34.72,32.41Z"/><path class="cls-6" d="M188.43,66.07c-1.64-7.33-2.11-14.87-2.57-22.37-.44-7.19-.62-15.19,4.09-20.63,3.2-3.7,8.23-5.48,13.13-5.54,9.5-.13,18.48,5.89,23.19,14.14,2.4,4.22,3.81,9,4.09,13.84,.13,2.25,2.79,3.44,4.5,1.99s2.9-3.53,3.53-5.65c1.1-3.75,.96-7.78,2.08-11.53,2.17-7.27,9.46-12.68,17.04-12.66,7,.02,13.27,4.1,19.06,8.03,3.41,2.31,7.16,5.17,7.51,9.27,.21,2.43-.86,4.73-2.11,6.88-3.24,5.55-6.68,10.99-10.17,16.39-6.48,10.03-13.1,20.39-22.13,28.35-7.43,6.55-16.71,11.41-26.59,11.98-19.38,1.13-30.82-15.3-34.66-32.47Z"/><image width="3106" height="1740" transform="translate(122.79 91.04) rotate(-180) scale(.04)" xlink:href="Tegnebræt 51.png"/><path class="cls-6" d="M133.37,54.71c-1.58,2.19-2,5.48-.22,7.51,2.04,2.32,5.84,1.96,8.55,.47s4.88-3.83,7.63-5.23c3.84-1.95,8.68-1.78,12.38,.44-1.1,2.84-2.21,5.68-3.31,8.51,6.49-3.03,13.4-5.14,20.48-6.22-4.66-3.75-8.75-8.21-12.1-13.17-.47,2.59-1.74,5.03-3.58,6.91,.05-.05-6.82-3.11-7.51-3.32-2.63-.79-5.35-1.26-8.09-1.4-5.41-.27-10.86,.8-14.24,5.49Z"/><g id="Lag_2-2"><g id="ikon"><g><path d="M194.88,67.88c.94,2.65,2.04,5.3,3.83,7.5,1.89,2.3,4.44,3.91,6.93,5.51,3.94,2.51,8.09,5.07,12.73,5.48,2.1,.2,4.25-.04,6.35-.34,5-.64,10.1-1.43,14.4-4.02,8.21-4.98,11.53-15.37,18.84-21.65,2.3-1.99,5.01-3.54,7.36-5.53,4.76-4.14,7.72-9.93,10.43-15.62,.55-1.15,.86-2.85-.29-3.3-.45-.2-1-.05-1.45,.15-3.75,1.74-4.61,7.69-8.71,8.33-.6,.1-1.4-.05-1.6-.65-.1-.35,0-.7,.15-1.05,.6-1.5,1.16-3,1.76-4.49,.25-.6,.45-1.3,.15-1.9-.55-1.1-2.4-.61-3.05,.49-.65,1.05-.8,2.4-1.56,3.39-1.15,1.4-3.7,1.39-4.8-.11-.95-1.25-.74-3.05-.64-4.6,.21-2.65,.01-5.6-1.83-7.5-.45-.45-1.05-.85-1.65-.6-.6,.2-.8,.9-.9,1.55-1.57,8.39,2.51,17,1.24,25.44-.86,5.9-4.37,11.24-8.78,15.27-3.71,3.34-8.21,5.93-13.06,7.17-.3,.1-.6,.2-.9,.3-1.8,.7-3.7,1.09-5.65,1.14-.35,.05-.65,.05-1,.05h-.15c-1.4,.1-2.75,0-4.05-.36-1.1-.2-2.15-.45-3.15-.91-.15-.05-.25-.05-.4-.1-.55-.2-1.05-.5-1.5-.8-.1-.05-.15-.1-.25-.15-3.29-2.01-5.79-5.41-6.73-9.16-.2-.85-.35-1.7-.14-2.55,.35-1.5,1.75-2.59,3.21-3.14,1.45-.6,3-.84,4.45-1.44,.45-.2,.95-.5,1.15-.95,.4-.85-.45-1.85-1.34-2.15-.9-.25-1.9-.1-2.85-.16s-2.05-.5-2.3-1.4l3.75-2.14c.35-.2,.8-.5,.75-.9-.05-.65-.95-.7-1.6-.65-1.3,.1-2.65-.26-3.6-1.11s-1.39-2.35-.89-3.55c.7-1.6,2.75-2.09,4.5-1.89,1.75,.25,3.35,1.06,5.09,1.26,.6,.1,1.25,.05,1.7-.35,.35-.3,.45-.8,.55-1.25,.25-2.15-.74-4.25-1.94-6.05-4.58-6.86-12.67-11.12-20.87-11.09-1.8,0-3.7,.24-5.05,1.39-1.85,1.55-2.16,4.24-2.21,6.64-.37,10.94,1.75,22.09,5.53,32.55h0Z"/><path d="M194.13,68.07c.84,2.35,1.79,4.65,3.23,6.7s3.24,3.61,5.24,5.01,4.09,2.71,6.24,3.91,4.54,2.36,6.99,2.96c2.6,.66,5.25,.56,7.9,.22,2.65-.29,5.05-.64,7.55-1.18,4.55-.99,8.75-2.88,12.16-6.17,6.11-5.88,9.28-14.27,16.09-19.56,2-1.54,4.2-2.89,6.11-4.53,1.8-1.55,3.41-3.34,4.76-5.29,1.4-1.95,2.61-4.04,3.71-6.14,.55-1.05,1.05-2.1,1.61-3.19,.45-.9,.95-1.85,1.16-2.85,.15-.9,.1-1.85-.64-2.5-.9-.8-2.1-.45-3.05,.09-1.45,.85-2.5,2.24-3.41,3.59-.95,1.35-1.71,2.79-3.01,3.74-.55,.4-1.35,.85-2.05,.7-.65-.1-.15-.8,0-1.2,.25-.7,.5-1.35,.8-2.05,.4-1.1,1.15-2.35,1.11-3.55-.05-.95-.7-1.75-1.65-1.9s-1.85,.25-2.5,.89c-.75,.75-1,1.85-1.41,2.85-.4,.95-.95,1.65-2,1.74-.8,.1-1.65-.15-2.15-.8-.65-.85-.65-2.05-.59-3.05,.05-1.15,.2-2.25,.16-3.4-.1-2.1-.64-4.45-2.24-5.95-.8-.7-1.95-1.1-2.85-.36-.8,.65-.9,1.85-1.01,2.8-.71,5.1,.48,10.2,1.17,15.25,.34,2.5,.59,5.05,.43,7.55-.16,2.55-.76,4.75-1.71,6.94-1.86,4.24-4.97,7.94-8.57,10.83-1.9,1.55-4,2.84-6.21,3.88-2.2,1.04-4.55,1.74-6.9,2.48-2.3,.74-5,.94-7.5,.73s-5.05-.96-7.19-2.31c-1.85-1.15-3.44-2.81-4.54-4.66-.55-.9-1.05-1.9-1.34-2.95-.4-1.15-.79-2.5-.29-3.65,.95-2.1,3.75-2.54,5.7-3.14,1-.3,2.2-.64,2.8-1.59,.55-.95,.2-2.05-.54-2.75-.85-.75-2-.85-3.1-.86-.8,0-2.3,.14-2.65-.86l-.35,.85c.7-.4,1.35-.8,2.05-1.14,.7-.4,1.5-.75,2.15-1.24s.95-1.3,.5-2c-.45-.65-1.3-.7-2-.7-1.7,.05-3.7-.41-4.09-2.36-.35-1.75,1.36-2.6,2.85-2.69,2-.1,3.9,1.01,5.84,1.31,.85,.1,1.8,.1,2.45-.44,.65-.55,.85-1.5,.85-2.35,.05-2.05-.84-3.95-1.89-5.65-3.88-6.01-10.42-10.22-17.42-11.38-3.25-.56-7.94-1.02-10.35,1.78-1.15,1.3-1.61,3-1.81,4.64-.25,2-.21,4-.16,6,.18,8.75,1.86,17.5,4.54,25.8,.25,1.1,.65,2.1,.99,3.15,.3,.9,1.75,.5,1.45-.4-2.83-7.8-4.71-15.9-5.34-24.15-.15-2.05-.24-4.15-.24-6.2,0-1.75-.04-3.6,.36-5.3,.4-1.6,1.26-3,2.81-3.59s3.4-.59,5.05-.44c6.7,.46,13.14,3.88,17.32,9.03,1.15,1.4,2.24,3,2.79,4.75,.25,.85,.45,1.9,.19,2.8s-1.3,.65-2,.5c-1.8-.4-3.6-1.31-5.49-1.21-1.45,.05-3,.54-3.85,1.79s-.71,3.1,.19,4.3c1.05,1.4,2.79,2.01,4.49,1.96,.3,0,.65,.05,.95,0,.25,0,0,0,.1-.05-.05,.05-.25,.15-.4,.25-.2,.1-.4,.25-.6,.35l-2.6,1.44-.55,.35c-.25,.15-.45,.55-.35,.85,.3,1,1.15,1.6,2.09,1.85,1.15,.3,2.4-.14,3.55,.26,.35,.1,.8,.45,.9,.85,.1,.5-.55,.75-.9,.9-1.15,.5-2.4,.74-3.6,1.14-1.9,.65-3.95,1.89-4.36,4.04-.45,2.1,.64,4.75,1.68,6.65,1.05,1.9,2.44,3.5,4.14,4.81,1.9,1.5,4.04,2.46,6.39,2.96,2.35,.45,4.95,.61,7.45,.32,1.2-.15,2.4-.39,3.55-.79,1.15-.4,2.35-.74,3.55-1.14,8.65-2.88,16.56-9.96,19.53-18.7,1.56-4.64,1.27-9.49,.53-14.29-.69-4.8-1.93-10.1-.87-14.99,.05-.3,.15-.85,.5-.9,.5-.05,1,.7,1.25,1.05,.6,.85,.95,1.9,1.09,2.95,.35,2.15-.26,4.3,.04,6.45,.3,2,1.74,3.45,3.79,3.51,.9,0,1.8-.25,2.5-.84,.85-.7,1.2-1.7,1.56-2.7,.3-.85,.65-1.8,1.7-1.95,1.2-.2,.45,1.45,.25,2-.5,1.3-1.01,2.55-1.51,3.84-.4,1.05-.45,2.25,.79,2.75,1.55,.6,3.35-.39,4.45-1.49,1.15-1.15,2-2.59,2.91-3.94,.45-.65,.95-1.3,1.55-1.9,.45-.4,1.6-1.45,2.25-1.14,.65,.35,.15,1.65-.05,2.1-.45,1.05-1,2.1-1.51,3.1-2.06,4.19-4.47,8.34-7.82,11.58-1.8,1.75-3.9,3.09-5.91,4.53-1.8,1.35-3.5,2.79-5.06,4.44-2.81,3.09-5.01,6.64-7.42,10.03-2.41,3.39-4.86,6.49-8.27,8.68-4.2,2.69-9.2,3.53-14.05,4.17-2.7,.34-5.4,.69-8.1,.18-2.4-.46-4.64-1.46-6.79-2.61-2.15-1.15-4.19-2.46-6.24-3.81-2-1.35-3.94-2.86-5.39-4.86s-2.29-4.2-3.13-6.45c-.2-.95-1.65-.55-1.3,.35h0Z"/></g></g></g><path class="cls-6" d="M278.31,56.84c-1.58,2.19-2,5.48-.22,7.51,2.04,2.32,5.84,1.96,8.55,.47s4.88-3.83,7.63-5.23c3.84-1.95,8.68-1.78,12.38,.44-1.1,2.84-2.21,5.68-3.31,8.51,6.49-3.03,13.4-5.14,20.48-6.22-4.66-3.75-8.75-8.21-12.1-13.17-.47,2.59-1.74,5.03-3.58,6.91,.05-.05-6.82-3.11-7.51-3.32-2.63-.79-5.35-1.26-8.09-1.4-5.41-.27-10.86,.8-14.24,5.49Z"/><g id="Lag_2-2-2"><g id="ikon-2"><g><path d="M411.54,41.73c-.94-2.65-2.04-5.3-3.83-7.5-1.89-2.3-4.44-3.91-6.93-5.51-3.94-2.51-8.09-5.07-12.73-5.48-2.1-.2-4.25,.04-6.35,.34-5,.64-10.1,1.43-14.4,4.02-8.21,4.98-11.53,15.37-18.84,21.65-2.3,1.99-5.01,3.54-7.36,5.53-4.76,4.14-7.72,9.93-10.43,15.62-.55,1.15-.86,2.85,.29,3.3,.45,.2,1,.05,1.45-.15,3.75-1.74,4.61-7.69,8.71-8.33,.6-.1,1.4,.05,1.6,.65,.1,.35,0,.7-.15,1.05-.6,1.5-1.16,3-1.76,4.49-.25,.6-.45,1.3-.15,1.9,.55,1.1,2.4,.61,3.05-.49,.65-1.05,.8-2.4,1.56-3.39,1.15-1.4,3.7-1.39,4.8,.11,.95,1.25,.74,3.05,.64,4.6-.21,2.65-.01,5.6,1.83,7.5,.45,.45,1.05,.85,1.65,.6,.6-.2,.8-.9,.9-1.55,1.57-8.39-2.51-17-1.24-25.44,.86-5.9,4.37-11.24,8.78-15.27,3.71-3.34,8.21-5.93,13.06-7.17,.3-.1,.6-.2,.9-.3,1.8-.7,3.7-1.09,5.65-1.14,.35-.05,.65-.05,1-.05h.15c1.4-.1,2.75,0,4.05,.36,1.1,.2,2.15,.45,3.15,.91,.15,.05,.25,.05,.4,.1,.55,.2,1.05,.5,1.5,.8,.1,.05,.15,.1,.25,.15,3.29,2.01,5.79,5.41,6.73,9.16,.2,.85,.35,1.7,.14,2.55-.35,1.5-1.75,2.59-3.21,3.14-1.45,.6-3,.84-4.45,1.44-.45,.2-.95,.5-1.15,.95-.4,.85,.45,1.85,1.34,2.15,.9,.25,1.9,.1,2.85,.16s2.05,.5,2.3,1.4l-3.75,2.14c-.35,.2-.8,.5-.75,.9,.05,.65,.95,.7,1.6,.65,1.3-.1,2.65,.26,3.6,1.11s1.39,2.35,.89,3.55c-.7,1.6-2.75,2.09-4.5,1.89-1.75-.25-3.35-1.06-5.09-1.26-.6-.1-1.25-.05-1.7,.35-.35,.3-.45,.8-.55,1.25-.25,2.15,.74,4.25,1.94,6.05,4.58,6.86,12.67,11.12,20.87,11.09,1.8,0,3.7-.24,5.05-1.39,1.85-1.55,2.16-4.24,2.21-6.64,.37-10.94-1.75-22.09-5.53-32.55h0Z"/><path d="M412.29,41.54c-.84-2.35-1.79-4.65-3.23-6.7s-3.24-3.61-5.24-5.01-4.09-2.71-6.24-3.91-4.54-2.36-6.99-2.96c-2.6-.66-5.25-.56-7.9-.22-2.65,.29-5.05,.64-7.55,1.18-4.55,.99-8.75,2.88-12.16,6.17-6.11,5.88-9.28,14.27-16.09,19.56-2,1.54-4.2,2.89-6.11,4.53-1.8,1.55-3.41,3.34-4.76,5.29-1.4,1.95-2.61,4.04-3.71,6.14-.55,1.05-1.05,2.1-1.61,3.19-.45,.9-.95,1.85-1.16,2.85-.15,.9-.1,1.85,.64,2.5,.9,.8,2.1,.45,3.05-.09,1.45-.85,2.5-2.24,3.41-3.59,.95-1.35,1.71-2.79,3.01-3.74,.55-.4,1.35-.85,2.05-.7,.65,.1,.15,.8,0,1.2-.25,.7-.5,1.35-.8,2.05-.4,1.1-1.15,2.35-1.11,3.55,.05,.95,.7,1.75,1.65,1.9s1.85-.25,2.5-.89c.75-.75,1-1.85,1.41-2.85,.4-.95,.95-1.65,2-1.74,.8-.1,1.65,.15,2.15,.8,.65,.85,.65,2.05,.59,3.05-.05,1.15-.2,2.25-.16,3.4,.1,2.1,.64,4.45,2.24,5.95,.8,.7,1.95,1.1,2.85,.36,.8-.65,.9-1.85,1.01-2.8,.71-5.1-.48-10.2-1.17-15.25-.34-2.5-.59-5.05-.43-7.55,.16-2.55,.76-4.75,1.71-6.94,1.86-4.24,4.97-7.94,8.57-10.83,1.9-1.55,4-2.84,6.21-3.88,2.2-1.04,4.55-1.74,6.9-2.48,2.3-.74,5-.94,7.5-.73s5.05,.96,7.19,2.31c1.85,1.15,3.44,2.81,4.54,4.66,.55,.9,1.05,1.9,1.34,2.95,.4,1.15,.79,2.5,.29,3.65-.95,2.1-3.75,2.54-5.7,3.14-1,.3-2.2,.64-2.8,1.59-.55,.95-.2,2.05,.54,2.75,.85,.75,2,.85,3.1,.86,.8,0,2.3-.14,2.65,.86l.35-.85c-.7,.4-1.35,.8-2.05,1.14-.7,.4-1.5,.75-2.15,1.24s-.95,1.3-.5,2c.45,.65,1.3,.7,2,.7,1.7-.05,3.7,.41,4.09,2.36,.35,1.75-1.36,2.6-2.85,2.69-2,.1-3.9-1.01-5.84-1.31-.85-.1-1.8-.1-2.45,.44-.65,.55-.85,1.5-.85,2.35-.05,2.05,.84,3.95,1.89,5.65,3.88,6.01,10.42,10.22,17.42,11.38,3.25,.56,7.94,1.02,10.35-1.78,1.15-1.3,1.61-3,1.81-4.64,.25-2,.21-4,.16-6-.18-8.75-1.86-17.5-4.54-25.8-.25-1.1-.65-2.1-.99-3.15-.3-.9-1.75-.5-1.45,.4,2.83,7.8,4.71,15.9,5.34,24.15,.15,2.05,.24,4.15,.24,6.2,0,1.75,.04,3.6-.36,5.3-.4,1.6-1.26,3-2.81,3.59s-3.4,.59-5.05,.44c-6.7-.46-13.14-3.88-17.32-9.03-1.15-1.4-2.24-3-2.79-4.75-.25-.85-.45-1.9-.19-2.8s1.3-.65,2-.5c1.8,.4,3.6,1.31,5.49,1.21,1.45-.05,3-.54,3.85-1.79s.71-3.1-.19-4.3c-1.05-1.4-2.79-2.01-4.49-1.96-.3,0-.65-.05-.95,0-.25,0,0,0-.1,.05,.05-.05,.25-.15,.4-.25,.2-.1,.4-.25,.6-.35l2.6-1.44,.55-.35c.25-.15,.45-.55,.35-.85-.3-1-1.15-1.6-2.09-1.85-1.15-.3-2.4,.14-3.55-.26-.35-.1-.8-.45-.9-.85-.1-.5,.55-.75,.9-.9,1.15-.5,2.4-.74,3.6-1.14,1.9-.65,3.95-1.89,4.36-4.04,.45-2.1-.64-4.75-1.68-6.65-1.05-1.9-2.44-3.5-4.14-4.81-1.9-1.5-4.04-2.46-6.39-2.96-2.35-.45-4.95-.61-7.45-.32-1.2,.15-2.4,.39-3.55,.79-1.15,.4-2.35,.74-3.55,1.14-8.65,2.88-16.56,9.96-19.53,18.7-1.56,4.64-1.27,9.49-.53,14.29,.69,4.8,1.93,10.1,.87,14.99-.05,.3-.15,.85-.5,.9-.5,.05-1-.7-1.25-1.05-.6-.85-.95-1.9-1.09-2.95-.35-2.15,.26-4.3-.04-6.45-.3-2-1.74-3.45-3.79-3.51-.9,0-1.8,.25-2.5,.84-.85,.7-1.2,1.7-1.56,2.7-.3,.85-.65,1.8-1.7,1.95-1.2,.2-.45-1.45-.25-2,.5-1.3,1.01-2.55,1.51-3.84,.4-1.05,.45-2.25-.79-2.75-1.55-.6-3.35,.39-4.45,1.49-1.15,1.15-2,2.59-2.91,3.94-.45,.65-.95,1.3-1.55,1.9-.45,.4-1.6,1.45-2.25,1.14-.65-.35-.15-1.65,.05-2.1,.45-1.05,1-2.1,1.51-3.1,2.06-4.19,4.47-8.34,7.82-11.58,1.8-1.75,3.9-3.09,5.91-4.53,1.8-1.35,3.5-2.79,5.06-4.44,2.81-3.09,5.01-6.64,7.42-10.03,2.41-3.39,4.86-6.49,8.27-8.68,4.2-2.69,9.2-3.53,14.05-4.17,2.7-.34,5.4-.69,8.1-.18,2.4,.46,4.64,1.46,6.79,2.61,2.15,1.15,4.19,2.46,6.24,3.81,2,1.35,3.94,2.86,5.39,4.86s2.29,4.2,3.13,6.45c.2,.95,1.65,.55,1.3-.35h0Z"/></g></g></g><rect class="cls-2" x="230.32" y="124.41" width="55.7" height="49.2"/><path class="cls-6" d="M234.49,144.51c2.6-6.3,8.2-11.8,15.2-13.8,6.9-2,15-.3,20.3,4.2,3.2,2.7,5.5,6.4,7.4,10.1,2.1,4,4,8.2,5.5,12.4,.7,1.9,1.3,3.8,1.1,5.8-.2,2-1.6,4-3.6,4.5-1.5,.4-3.1-.1-4.3-.9-1.2-.8-2.1-2-3-3.1-2.5-3.6-4.1-7.6-4.8-11.8-.2-1.3-.3-2.6-.8-3.7-.5-1.2-1.5-2.3-2.8-2.7-1.8-.5-3.8,.6-4.8,2.1-.9,1.5-1,3.4-.8,5.1,.2,1.7,.6,3.5,.5,5.3-.1,1.2-.3,2.5-1.2,3.5-.8,1-2.1,1.7-3.5,1.6-2.2-.2-3.6-2.4-4.2-4.4-.9-2.7-1.2-5.6-1-8.5,.1-1.5,.2-3.3-1-4.2-1.2-.8-3-.5-4.1,.5s-1.4,2.4-1.7,3.7c-.6,2.7-.7,5.3-.7,8.1,.1,1.8,.3,3.7-.1,5.6-.4,1.8-1.6,3.7-3.5,4.3-5.8,1.8-5.7-5-6.1-8.2-.5-5.5,0-10.7,2-15.5Z"/><rect class="cls-6" x="163.92" y="124.59" width="55.7" height="49.2"/><path d="M168.09,144.51c2.6-6.3,8.2-11.8,15.2-13.8,6.9-2,15-.3,20.3,4.2,3.2,2.7,5.5,6.4,7.4,10.1,2.1,4,4,8.2,5.5,12.4,.7,1.9,1.3,3.8,1.1,5.8s-1.6,4-3.6,4.5c-1.5,.4-3.1-.1-4.3-.9s-2.1-2-3-3.1c-2.5-3.6-4.1-7.6-4.8-11.8-.2-1.3-.3-2.6-.8-3.7-.5-1.2-1.5-2.3-2.8-2.7-1.8-.5-3.8,.6-4.8,2.1-.9,1.5-1,3.4-.8,5.1s.6,3.5,.5,5.3c-.1,1.2-.3,2.5-1.2,3.5-.8,1-2.1,1.7-3.5,1.6-2.2-.2-3.6-2.4-4.2-4.4-.9-2.7-1.2-5.6-1-8.5,.1-1.5,.2-3.3-1-4.2-1.2-.8-3-.5-4.1,.5s-1.4,2.4-1.7,3.7c-.6,2.7-.7,5.3-.7,8.1,.1,1.8,.3,3.7-.1,5.6-.4,1.9-1.6,3.7-3.5,4.3-5.8,1.8-5.7-5-6.1-8.2-.5-5.5,0-10.7,2-15.5Z"/><g id="Lag_2-2-3"><g id="ikon-3"><g><path d="M99.01,126.92c-.94-2.65-2.04-5.3-3.83-7.5-1.89-2.3-4.44-3.91-6.93-5.51-3.94-2.51-8.09-5.07-12.73-5.48-2.1-.2-4.25,.04-6.35,.34-5,.64-10.1,1.43-14.4,4.02-8.21,4.98-11.53,15.37-18.84,21.65-2.3,1.99-5.01,3.54-7.36,5.53-4.76,4.14-7.72,9.93-10.43,15.62-.55,1.15-.86,2.85,.29,3.3,.45,.2,1,.05,1.45-.15,3.75-1.74,4.61-7.69,8.71-8.33,.6-.1,1.4,.05,1.6,.65,.1,.35,0,.7-.15,1.05-.6,1.5-1.16,3-1.76,4.49-.25,.6-.45,1.3-.15,1.9,.55,1.1,2.4,.61,3.05-.49,.65-1.05,.8-2.4,1.56-3.39,1.15-1.4,3.7-1.39,4.8,.11,.95,1.25,.74,3.05,.64,4.6-.21,2.65-.01,5.6,1.83,7.5,.45,.45,1.05,.85,1.65,.6,.6-.2,.8-.9,.9-1.55,1.57-8.39-2.51-17-1.24-25.44,.86-5.9,4.37-11.24,8.78-15.27,3.71-3.34,8.21-5.93,13.06-7.17,.3-.1,.6-.2,.9-.3,1.8-.7,3.7-1.09,5.65-1.14,.35-.05,.65-.05,1-.05h.15c1.4-.1,2.75,0,4.05,.36,1.1,.2,2.15,.45,3.15,.91,.15,.05,.25,.05,.4,.1,.55,.2,1.05,.5,1.5,.8,.1,.05,.15,.1,.25,.15,3.29,2.01,5.79,5.41,6.73,9.16,.2,.85,.35,1.7,.14,2.55-.35,1.5-1.75,2.59-3.21,3.14-1.45,.6-3,.84-4.45,1.44-.45,.2-.95,.5-1.15,.95-.4,.85,.45,1.85,1.34,2.15,.9,.25,1.9,.1,2.85,.16s2.05,.5,2.3,1.4l-3.75,2.14c-.35,.2-.8,.5-.75,.9,.05,.65,.95,.7,1.6,.65,1.3-.1,2.65,.26,3.6,1.11s1.39,2.35,.89,3.55c-.7,1.6-2.75,2.09-4.5,1.89-1.75-.25-3.35-1.06-5.09-1.26-.6-.1-1.25-.05-1.7,.35-.35,.3-.45,.8-.55,1.25-.25,2.15,.74,4.25,1.94,6.05,4.58,6.86,12.67,11.12,20.87,11.09,1.8,0,3.7-.24,5.05-1.39,1.85-1.55,2.16-4.24,2.21-6.64,.37-10.94-1.75-22.09-5.53-32.55h0Z"/><path d="M99.76,126.72c-.84-2.35-1.79-4.65-3.23-6.7s-3.24-3.61-5.24-5.01-4.09-2.71-6.24-3.91-4.54-2.36-6.99-2.96c-2.6-.66-5.25-.56-7.9-.22-2.65,.29-5.05,.64-7.55,1.18-4.55,.99-8.75,2.88-12.16,6.17-6.11,5.88-9.28,14.27-16.09,19.56-2,1.54-4.2,2.89-6.11,4.53-1.8,1.55-3.41,3.34-4.76,5.29-1.4,1.95-2.61,4.04-3.71,6.14-.55,1.05-1.05,2.1-1.61,3.19-.45,.9-.95,1.85-1.16,2.85-.15,.9-.1,1.85,.64,2.5,.9,.8,2.1,.45,3.05-.09,1.45-.85,2.5-2.24,3.41-3.59,.95-1.35,1.71-2.79,3.01-3.74,.55-.4,1.35-.85,2.05-.7,.65,.1,.15,.8,0,1.2-.25,.7-.5,1.35-.8,2.05-.4,1.1-1.15,2.35-1.11,3.55,.05,.95,.7,1.75,1.65,1.9s1.85-.25,2.5-.89c.75-.75,1-1.85,1.41-2.85,.4-.95,.95-1.65,2-1.74,.8-.1,1.65,.15,2.15,.8,.65,.85,.65,2.05,.59,3.05-.05,1.15-.2,2.25-.16,3.4,.1,2.1,.64,4.45,2.24,5.95,.8,.7,1.95,1.1,2.85,.36,.8-.65,.9-1.85,1.01-2.8,.71-5.1-.48-10.2-1.17-15.25-.34-2.5-.59-5.05-.43-7.55,.16-2.55,.76-4.75,1.71-6.94,1.86-4.24,4.97-7.94,8.57-10.83,1.9-1.55,4-2.84,6.21-3.88,2.2-1.04,4.55-1.74,6.9-2.48,2.3-.74,5-.94,7.5-.73s5.05,.96,7.19,2.31c1.85,1.15,3.44,2.81,4.54,4.66,.55,.9,1.05,1.9,1.34,2.95,.4,1.15,.79,2.5,.29,3.65-.95,2.1-3.75,2.54-5.7,3.14-1,.3-2.2,.64-2.8,1.59-.55,.95-.2,2.05,.54,2.75,.85,.75,2,.85,3.1,.86,.8,0,2.3-.14,2.65,.86l.35-.85c-.7,.4-1.35,.8-2.05,1.14-.7,.4-1.5,.75-2.15,1.24s-.95,1.3-.5,2c.45,.65,1.3,.7,2,.7,1.7-.05,3.7,.41,4.09,2.36,.35,1.75-1.36,2.6-2.85,2.69-2,.1-3.9-1.01-5.84-1.31-.85-.1-1.8-.1-2.45,.44-.65,.55-.85,1.5-.85,2.35-.05,2.05,.84,3.95,1.89,5.65,3.88,6.01,10.42,10.22,17.42,11.38,3.25,.56,7.94,1.02,10.35-1.78,1.15-1.3,1.61-3,1.81-4.64,.25-2,.21-4,.16-6-.18-8.75-1.86-17.5-4.54-25.8-.25-1.1-.65-2.1-.99-3.15-.3-.9-1.75-.5-1.45,.4,2.83,7.8,4.71,15.9,5.34,24.15,.15,2.05,.24,4.15,.24,6.2,0,1.75,.04,3.6-.36,5.3-.4,1.6-1.26,3-2.81,3.59s-3.4,.59-5.05,.44c-6.7-.46-13.14-3.88-17.32-9.03-1.15-1.4-2.24-3-2.79-4.75-.25-.85-.45-1.9-.19-2.8s1.3-.65,2-.5c1.8,.4,3.6,1.31,5.49,1.21,1.45-.05,3-.54,3.85-1.79s.71-3.1-.19-4.3c-1.05-1.4-2.79-2.01-4.49-1.96-.3,0-.65-.05-.95,0-.25,0,0,0-.1,.05,.05-.05,.25-.15,.4-.25,.2-.1,.4-.25,.6-.35l2.6-1.44,.55-.35c.25-.15,.45-.55,.35-.85-.3-1-1.15-1.6-2.09-1.85-1.15-.3-2.4,.14-3.55-.26-.35-.1-.8-.45-.9-.85-.1-.5,.55-.75,.9-.9,1.15-.5,2.4-.74,3.6-1.14,1.9-.65,3.95-1.89,4.36-4.04,.45-2.1-.64-4.75-1.68-6.65-1.05-1.9-2.44-3.5-4.14-4.81-1.9-1.5-4.04-2.46-6.39-2.96-2.35-.45-4.95-.61-7.45-.32-1.2,.15-2.4,.39-3.55,.79-1.15,.4-2.35,.74-3.55,1.14-8.65,2.88-16.56,9.96-19.53,18.7-1.56,4.64-1.27,9.49-.53,14.29,.69,4.8,1.93,10.1,.87,14.99-.05,.3-.15,.85-.5,.9-.5,.05-1-.7-1.25-1.05-.6-.85-.95-1.9-1.09-2.95-.35-2.15,.26-4.3-.04-6.45-.3-2-1.74-3.45-3.79-3.51-.9,0-1.8,.25-2.5,.84-.85,.7-1.2,1.7-1.56,2.7-.3,.85-.65,1.8-1.7,1.95-1.2,.2-.45-1.45-.25-2,.5-1.3,1.01-2.55,1.51-3.84,.4-1.05,.45-2.25-.79-2.75-1.55-.6-3.35,.39-4.45,1.49-1.15,1.15-2,2.59-2.91,3.94-.45,.65-.95,1.3-1.55,1.9-.45,.4-1.6,1.45-2.25,1.14-.65-.35-.15-1.65,.05-2.1,.45-1.05,1-2.1,1.51-3.1,2.06-4.19,4.47-8.34,7.82-11.58,1.8-1.75,3.9-3.09,5.91-4.53,1.8-1.35,3.5-2.79,5.06-4.44,2.81-3.09,5.01-6.64,7.42-10.03,2.41-3.39,4.86-6.49,8.27-8.68,4.2-2.69,9.2-3.53,14.05-4.17,2.7-.34,5.4-.69,8.1-.18,2.4,.46,4.64,1.46,6.79,2.61,2.15,1.15,4.19,2.46,6.24,3.81,2,1.35,3.94,2.86,5.39,4.86s2.29,4.2,3.13,6.45c.2,.95,1.65,.55,1.3-.35h0Z"/></g></g></g><rect class="cls-4" x="11.01" y="129.88" width="41.1" height="41.1"/><path class="cls-6" d="M112.56,147.18c-1.58,2.19-2,5.48-.22,7.51,2.04,2.32,5.84,1.96,8.55,.47s4.88-3.83,7.63-5.23c3.84-1.95,8.68-1.78,12.38,.44-1.1,2.84-2.21,5.68-3.31,8.51,6.49-3.03,13.4-5.14,20.48-6.22-4.66-3.75-8.75-8.21-12.1-13.17-.47,2.59-1.74,5.03-3.58,6.91,.05-.05-6.82-3.11-7.51-3.32-2.63-.79-5.35-1.26-8.09-1.4-5.41-.27-10.86,.8-14.24,5.49Z"/><rect class="cls-6" x="283.47" y="191.71" width="63.3" height="58.3"/><rect class="cls-5" x="219.7" y="191.71" width="63.3" height="58.3"/><rect class="cls-1" x="161" y="191.91" width="58.5" height="58.1"/><path class="cls-3" d="M166.7,219.01c.4-4.8,1.8-9.7,5.2-13,3.4-3.3,9.3-4.4,13-1.4,.9,.8,1.7,1.8,2.7,2.6s2.3,1.3,3.4,.9c1.6-.6,2.1-2.5,3.1-3.9,1.6-2.3,4.8-3.1,7.5-2.4s4.9,2.7,6.5,5,2.6,4.9,3.5,7.6c2.4,6.4,4.8,13.3,2.8,19.8-.7,2.4-2.5,4.9-5,4.8-1.6-.1-3-1.3-3.8-2.7-.8-1.4-1-3.1-1.2-4.7-.6-4.1-1.2-8.2-1.7-12.4-.2-1.7-.8-3.7-2.4-4.1-1.7-.3-3.1,1.4-3.3,3.1-.3,1.7,.1,3.4-.2,5.1-.5,1.9-2,3.6-4,4.1-1.9,.5-4.1-.1-5.5-1.6s-1.8-3.6-2.5-5.5-1.9-3.9-3.9-4.3c-2.2-.5-4.4,1.3-5.1,3.4s-.3,4.4,.3,6.6,1.4,4.3,1.4,6.5c0,2.5-1,5-2.9,6.5s-4.8,1.9-6.9,.6c-3.3-2-2.1-4.9-1.4-7.8,.7-4.2,0-8.7,.4-12.8Z"/><path d="M230.9,219.01c.4-4.8,1.8-9.7,5.2-13,3.4-3.3,9.3-4.4,13-1.4,.9,.8,1.7,1.8,2.7,2.6s2.3,1.3,3.4,.9c1.6-.6,2.1-2.5,3.1-3.9,1.6-2.3,4.8-3.1,7.5-2.4s4.9,2.7,6.5,5,2.6,4.9,3.5,7.6c2.4,6.4,4.8,13.3,2.8,19.8-.7,2.4-2.5,4.9-5,4.8-1.6-.1-3-1.3-3.8-2.7-.8-1.4-1-3.1-1.2-4.7-.6-4.1-1.2-8.2-1.7-12.4-.2-1.7-.8-3.7-2.4-4.1-1.7-.3-3.1,1.4-3.3,3.1-.3,1.7,.1,3.4-.2,5.1-.5,1.9-2,3.6-4,4.1-1.9,.5-4.1-.1-5.5-1.6s-1.8-3.6-2.5-5.5-1.9-3.9-3.9-4.3c-2.2-.5-4.4,1.3-5.1,3.4s-.3,4.4,.3,6.6,1.4,4.3,1.4,6.5c0,2.5-1,5-2.9,6.5s-4.8,1.9-6.9,.6c-3.3-2-2.1-4.9-1.4-7.8,.6-4.2,0-8.7,.4-12.8Z"/><path class="cls-7" d="M293.7,219.01c.4-4.8,1.8-9.7,5.2-13s9.3-4.4,13-1.4c.9,.8,1.7,1.8,2.7,2.6s2.3,1.3,3.4,.9c1.6-.6,2.1-2.5,3.1-3.9,1.6-2.3,4.8-3.1,7.5-2.4s4.9,2.7,6.5,5,2.6,4.9,3.5,7.6c2.4,6.4,4.8,13.3,2.8,19.8-.7,2.4-2.5,4.9-5,4.8-1.6-.1-3-1.3-3.8-2.7-.8-1.4-1-3.1-1.2-4.7-.6-4.1-1.2-8.2-1.7-12.4-.2-1.7-.8-3.7-2.4-4.1-1.7-.3-3.1,1.4-3.3,3.1-.3,1.7,.1,3.4-.2,5.1-.5,1.9-2,3.6-4,4.1-1.9,.5-4.1-.1-5.5-1.6s-1.8-3.6-2.5-5.5-1.9-3.9-3.9-4.3c-2.2-.5-4.4,1.3-5.1,3.4-.7,2.1-.3,4.4,.3,6.6s1.4,4.3,1.4,6.5c0,2.5-1,5-2.9,6.5s-4.8,1.9-6.9,.6c-3.3-2-2.1-4.9-1.4-7.8,.6-4.2,0-8.7,.4-12.8Z"/><rect class="cls-7" x="345.67" y="191.71" width="63.3" height="58.3"/><path class="cls-6" d="M355.69,215.94c.4-4.8,1.8-9.7,5.2-13s9.3-4.4,13-1.4c.9,.8,1.7,1.8,2.7,2.6s2.3,1.3,3.4,.9c1.6-.6,2.1-2.5,3.1-3.9,1.6-2.3,4.8-3.1,7.5-2.4s4.9,2.7,6.5,5,2.6,4.9,3.5,7.6c2.4,6.4,4.8,13.3,2.8,19.8-.7,2.4-2.5,4.9-5,4.8-1.6-.1-3-1.3-3.8-2.7-.8-1.4-1-3.1-1.2-4.7-.6-4.1-1.2-8.2-1.7-12.4-.2-1.7-.8-3.7-2.4-4.1-1.7-.3-3.1,1.4-3.3,3.1-.3,1.7,.1,3.4-.2,5.1-.5,1.9-2,3.6-4,4.1-1.9,.5-4.1-.1-5.5-1.6s-1.8-3.6-2.5-5.5-1.9-3.9-3.9-4.3c-2.2-.5-4.4,1.3-5.1,3.4-.7,2.1-.3,4.4,.3,6.6s1.4,4.3,1.4,6.5c0,2.5-1,5-2.9,6.5s-4.8,1.9-6.9,.6c-3.3-2-2.1-4.9-1.4-7.8,.6-4.2,0-8.7,.4-12.8Z"/></svg>